<?xml version="1.0"?>
<svg xmlns="http://www.w3.org/2000/svg" xmlns:xlink="http://www.w3.org/1999/xlink" version="1.1" id="Layer_1" x="0px" y="0px" viewBox="0 0 512.001 512.001" style="enable-background:new 0 0 512.001 512.001;" xml:space="preserve" width="512px" height="512px" class=""><g><path style="fill:#C6C5CA;" d="M490.115,280.997l-29.608-51.283c-1.624-2.812-4.624-4.545-7.871-4.545s-6.248,1.733-7.871,4.545  l-29.879,51.752c-6.306,12.184,0.446,13.634,7.871,13.634h20.515c-30.307,61.396-89.938,105.713-160.607,114.67V150.385h-52.168  l0.035,259.488c-70.537-8.656-130.167-52.53-160.787-113.502H89.6c0.006,0,0.012,0,0.018,0c8.305,0,13.296-4.188,7.582-14.103  l-29.607-51.283c-1.624-2.812-4.624-4.545-7.871-4.545c-3.247,0-6.248,1.733-7.871,4.545l-29.879,51.752  c-6.556,11.5,1.372,13.85,7.871,13.634h19.136c11.688,104.095,99.991,185.013,207.209,185.013  c107.654,0,196.245-81.577,207.354-186.285h18.973c0.006-0.001,0.012-0.001,0.018,0  C490.501,295.101,495.786,291.009,490.115,280.997z" data-original="#C6C5CA" class=""/><g>
	<path style="fill:#ACABB1;" d="M230.496,150.385l0.016,259.488c-58.103-7.13-108.788-38.17-141.971-82.965h-0.806   c28.377,56.508,81.682,98.307,145.486,111.019c12.847,1.882,14.973-9.072,15.247-14.467l-0.884-273.076h-17.087V150.385z" data-original="#ACABB1"/>
	<rect x="230.501" y="173.828" style="fill:#ACABB1;" width="52.167" height="23.369" data-original="#ACABB1"/>
</g><g>
	<path style="fill:#C6C5CA" d="M255.504,464.157c-73.433-0.318-137.476-27.39-174.16-77.876   c37.003,56.976,101.072,94.787,174.085,95.102c70.245,0.304,132.516-34.166,170.528-87.232   C388.343,440.368,326.197,464.463,255.504,464.157z" data-original="#E0E0E2" class="active-path" data-old_color="#E0E0E2"/>
	<path style="fill:#C6C5CA" d="M292.151,449.115c-3.703,0-7-2.629-7.715-6.4c-0.808-4.266,1.996-8.379,6.261-9.187   c20.77-3.934,39.998-10.212,57.149-18.659c3.895-1.919,8.607-0.317,10.525,3.578c1.919,3.895,0.317,8.606-3.578,10.525   C336.369,438.049,292.636,449.115,292.151,449.115z" data-original="#E0E0E2" class="active-path" data-old_color="#E0E0E2"/>
	<path style="fill:#C6C5CA" d="M367.25,413.33c-2.526-3.531-1.487-8.483,2.11-10.915c3.23-2.184,6.392-4.486,9.398-6.841   c3.417-2.677,8.358-2.077,11.036,1.34c2.678,3.418,2.077,8.359-1.34,11.035c-3.294,2.58-6.755,5.1-10.289,7.49   C376.816,416.352,371.293,418.981,367.25,413.33z" data-original="#E0E0E2" class="active-path" data-old_color="#E0E0E2"/>
</g><path style="fill:#C6C5CA;" d="M256.001,132.164c-36.438,0-66.082-29.645-66.082-66.082S219.562,0,256.001,0  s66.082,29.645,66.082,66.082S292.438,132.164,256.001,132.164z M256.001,36.712c-16.194,0-29.37,13.175-29.37,29.37  s13.175,29.37,29.37,29.37s29.37-13.175,29.37-29.37S272.195,36.712,256.001,36.712z" data-original="#C6C5CA" class=""/><path style="fill:#ACABB1;" d="M206.025,66.082c0-33.71,25.378-61.587,58.028-65.574C261.412,0.186,258.728,0,256.001,0  c-36.438,0-66.082,29.645-66.082,66.082c0,36.438,29.645,66.082,66.082,66.082c2.728,0,5.411-0.186,8.054-0.508  C231.404,127.669,206.025,99.792,206.025,66.082z" data-original="#ACABB1"/><path style="fill:#FF728B;" d="M311.686,173.876H200.315c-11.529,0-20.962-9.433-20.962-20.962v-5.056  c0-11.529,9.433-20.962,20.962-20.962h111.371c11.529,0,20.962,9.433,20.962,20.962v5.056  C332.648,164.443,323.215,173.876,311.686,173.876z" data-original="#FF728B"/><g>
	<path style="fill:#FF3F62;" d="M229.783,150.385L229.783,150.385c0-12.92,10.57-23.49,23.49-23.49h-50.43   c-12.92,0-23.49,10.57-23.49,23.49l0,0c0,12.92,10.57,23.49,23.49,23.49h50.43C240.354,173.876,229.783,163.304,229.783,150.385z" data-original="#FF3F62"/>
	<path style="fill:#FF3F62;" d="M302.619,173.875h9.067c11.529,0,20.962-9.433,20.962-20.962v-5.056   c0-11.529-9.433-20.962-20.962-20.962h-32.873C288.915,138.301,299.804,154.592,302.619,173.875z" data-original="#FF3F62"/>
</g><g>
	<path style="fill:#FFDAAA;" d="M260.855,497.956c-0.527-0.415-52.774-42.17-53.221-98.979c-0.174-22.161,7.5-43.897,22.871-64.979   v-24.801c-25.905,28.52-38.872,58.689-38.591,90.025c0.577,64.428,56.845,109.232,59.24,111.108   c1.438,1.126,3.144,1.672,4.838,1.672c2.331,0,4.638-1.033,6.189-3.009C264.86,505.578,264.264,500.639,260.855,497.956z" data-original="#FFDAAA"/>
	<path style="fill:#FFDAAA;" d="M334.686,179.554c-2.29-57.836-54.776-94.636-57.01-96.174c-3.576-2.464-8.47-1.561-10.933,2.014   c-2.463,3.575-1.561,8.47,2.014,10.933c0.482,0.331,48.236,33.789,50.218,83.849c1.064,26.867-11.161,53.884-36.393,80.597v22.092   C318.557,249.445,336.08,214.757,334.686,179.554z" data-original="#FFDAAA"/>
</g><g>
	<path style="fill:#FFC477" d="M211.462,371.707c3.689-12.763,10.032-25.348,19.042-37.708v-24.803   c-7.41,8.16-13.756,16.454-19.042,24.872V371.707z" data-original="#FFC477" class="" data-old_color="#FFC477"/>
	<path style="fill:#FFC477" d="M301.736,236.26c-5.268,8.191-11.747,16.367-19.442,24.515v22.092   c7.233-6.719,13.706-13.491,19.442-20.307V236.26z" data-original="#FFC477" class="" data-old_color="#FFC477"/>
</g></g> </svg>
