<?xml version="1.0"?>
<svg xmlns="http://www.w3.org/2000/svg" xmlns:xlink="http://www.w3.org/1999/xlink" version="1.1" id="Layer_1" x="0px" y="0px" viewBox="0 0 512 512" style="enable-background:new 0 0 512 512;" xml:space="preserve" width="512px" height="512px" class=""><g><g>
	<path style="fill:#824533;" d="M266.808,506.063c-4.532,0-8.207-3.673-8.207-8.207v-24.739c0-4.532,3.674-8.207,8.207-8.207   c4.533,0,8.207,3.674,8.207,8.207v24.739C275.015,502.389,271.34,506.063,266.808,506.063z" data-original="#824533"/>
	<path style="fill:#824533;" d="M217.448,512c-2.706,0-5.354-1.336-6.92-3.783c-2.442-3.817-1.33-8.893,2.487-11.336l15.127-9.685   c2.124-1.361,4.758-1.67,7.138-0.834l26.334,9.223h28.874c4.532,0,8.207,3.674,8.207,8.207c0,4.533-3.674,8.207-8.207,8.207   h-30.269c-0.924,0-1.841-0.155-2.713-0.462l-23.881-8.364l-11.761,7.531C220.496,511.581,218.962,512,217.448,512z" data-original="#824533"/>
</g><path style="fill:#ECB759" d="M289.186,421.529c-0.96-0.934-2.298-1.38-3.625-1.2c-15.472,2.053-31.293,2.105-46.788,0.16  c-1.508-0.19-3.007,0.418-3.96,1.604c-0.951,1.186-1.218,2.782-0.706,4.214l16.103,45.002c0.622,1.741,2.272,2.902,4.121,2.902  h27.119c2.242,0,4.122-1.695,4.354-3.925l4.687-45.166C290.628,423.786,290.148,422.463,289.186,421.529z" data-original="#F4D2B5" class="" data-old_color="#F4D2B5"/><path style="fill:#E43838" d="M100.193,108.474C90.37,104.14,82.04,97.997,76.102,90.709c-1.834-2.25-5.101-2.678-7.451-0.977  c-6.507,4.711-26.311,19.044-51.461,28.037c-2.296,0.821-3.77,3.062-3.619,5.494c0.154,2.434,1.897,4.471,4.277,4.999  c8.966,1.986,18.168,2.994,27.342,2.994c19.196,0,37.769-4.328,55.197-12.864c1.911-0.936,3.108-2.895,3.065-5.023  C103.412,111.243,102.14,109.333,100.193,108.474z" data-original="#F9BC50" class="active-path" data-old_color="#F9BC50"/><path style="fill:#FCED42" d="M489.548,190.775c-0.265,0.155-0.532,0.299-0.799,0.452c-0.16,0.097-0.254,0.159-0.254,0.159  l0.009-0.019c-10.106,5.792-20.245,10.695-30.361,14.78c-23.47,78.613-96.281,135.935-182.526,135.935  c-23.708,0-46.386-4.361-67.323-12.275l0.049-0.086c-12.46-4.722-23.616-12.078-32.816-21.373c-0.002-0.001-0.002-0.002-0.004-0.003  c-4.086-4.13-7.783-8.642-11.037-13.482c-0.036-0.054-0.072-0.107-0.107-0.161c-2.381-3.561-4.518-7.294-6.393-11.181  c-0.088-0.184-0.175-0.368-0.263-0.553c-0.536-1.133-1.052-2.277-1.543-3.435c-0.067-0.158-0.137-0.312-0.201-0.469  c-1.085-2.598-2.054-5.255-2.902-7.966c-0.088-0.281-0.169-0.565-0.254-0.846c-0.318-1.056-0.617-2.118-0.899-3.189  c-0.092-0.352-0.186-0.704-0.274-1.056c-0.284-1.139-0.547-2.287-0.789-3.443c-0.047-0.221-0.101-0.44-0.146-0.662  c-0.278-1.375-0.524-2.762-0.74-4.16c-0.045-0.293-0.079-0.589-0.121-0.883c-0.156-1.091-0.297-2.186-0.415-3.289  c-0.049-0.449-0.09-0.898-0.133-1.348c-0.093-1.009-0.167-2.022-0.23-3.039c-0.026-0.428-0.056-0.855-0.074-1.285  c-0.065-1.418-0.107-2.843-0.107-4.277c0-1.416,0.043-2.822,0.107-4.223c0.018-0.384,0.038-0.766,0.06-1.149  c0.069-1.158,0.154-2.309,0.263-3.455c0.026-0.262,0.043-0.525,0.071-0.786c0.141-1.357,0.314-2.704,0.513-4.041  c0.054-0.357,0.115-0.711,0.172-1.067c0.167-1.046,0.353-2.086,0.557-3.12c0.072-0.371,0.143-0.743,0.219-1.113  c0.27-1.288,0.564-2.567,0.885-3.834c0.079-0.311,0.169-0.618,0.253-0.93c0.263-0.991,0.543-1.978,0.84-2.958  c0.13-0.436,0.265-0.871,0.402-1.304c0.329-1.032,0.675-2.057,1.041-3.075c0.139-0.385,0.278-0.768,0.421-1.151  c0.376-1.007,0.769-2.005,1.18-2.994c0.204-0.49,0.413-0.976,0.624-1.461c0.325-0.75,0.662-1.49,1.007-2.229  c0.218-0.466,0.43-0.936,0.654-1.397c0.502-1.03,1.026-2.048,1.567-3.056c0.291-0.547,0.596-1.084,0.899-1.624  c0.318-0.567,0.641-1.13,0.971-1.69c0.338-0.572,0.675-1.146,1.026-1.71c0.344-0.557,0.704-1.104,1.06-1.653  c0.63-0.974,1.278-1.934,1.944-2.88c0.278-0.393,0.554-0.788,0.836-1.175c0.464-0.637,0.934-1.269,1.413-1.893  c0.222-0.291,0.453-0.574,0.677-0.862c1.018-1.294,2.069-2.562,3.153-3.799c0.117-0.133,0.231-0.269,0.348-0.402  c0.605-0.682,1.22-1.351,1.844-2.016c0.156-0.165,0.314-0.329,0.471-0.493c2.009-2.103,4.112-4.11,6.309-6.016  c0.074-0.063,0.148-0.126,0.22-0.19c5.444-4.691,11.438-8.754,17.88-12.082l-1.563-29.316c2.755-29.266,12.864-66.159,13.148-67.182  c2.543-8.283,2.953-16.856,0.78-25.219C203.035,8.864,162.29-7.559,120.137,3.396c-42.146,10.956-69.736,45.14-61.621,76.351  c5.873,22.601,28.86,37.431,57.094,39.743l-0.01,0.004c0,0,0.022,0,0.056,0c0.486,0.038,0.972,0.083,1.462,0.115  c2.706,0.395,7.879,2.147,5.762,9.761c-0.562,1.513-1.157,2.999-1.774,4.469c-0.329,0.675-0.59,1.282-0.8,1.841  c-8.636,19.613-22.11,35.92-38.753,57.645C61.306,219.749,57.1,254.985,57.1,269.764c0,5.889,0.607,30.555,14.698,58.09h-0.001  c0,0,0.028,0.056,0.069,0.136c0.659,1.284,1.336,2.57,2.054,3.863l0,0c0,0,0.007,0.011,0.008,0.014  c5.621,10.121,13.128,20.518,23.125,30.429c23.981,26.093,66.217,58.907,131.612,67.751c0.071,0.011,0.143,0.02,0.213,0.03  c0.206,0.027,0.405,0.061,0.611,0.088l-0.008-0.004c10.46,1.503,21.152,2.289,32.029,2.289c85.237,0,159.322-47.712,197.029-117.882  c17.818-29.69,31.216-67.993,39.619-117.024C499.991,186.183,492.411,189.251,489.548,190.775z" data-original="#EFC49A" class="" data-old_color="#EFC49A"/><path style="opacity:0.18;fill:#231F20;enable-background:new    ;" d="M309.632,427.248c-6.568,0.542-13.209,0.826-19.916,0.826  c-11.62,0-23.044-0.84-34.22-2.445l0.009,0.004c-0.219-0.027-0.432-0.065-0.652-0.094c-0.077-0.01-0.152-0.021-0.229-0.032  c-69.87-9.451-114.995-44.51-140.617-72.387c-10.681-10.589-18.703-21.698-24.708-32.511c-0.001-0.003-0.009-0.015-0.009-0.015  h0.001c-0.767-1.382-1.49-2.755-2.194-4.128c-0.045-0.085-0.074-0.146-0.074-0.146h0.001c-15.056-29.42-15.704-55.773-15.704-62.066  c0-14.45,3.772-47.197,20.988-74.291h-0.475c-3.273,4.263-6.7,8.682-10.284,13.36c-20.248,26.425-24.454,61.661-24.454,76.44  c0,5.889,0.607,30.555,14.698,58.09h-0.001c0,0,0.028,0.056,0.069,0.136c0.659,1.284,1.336,2.57,2.054,3.863l0,0  c0,0,0.007,0.011,0.008,0.014c5.621,10.121,13.128,20.518,23.125,30.429c23.981,26.093,66.217,58.907,131.612,67.751  c0.071,0.011,0.143,0.02,0.213,0.03c0.206,0.027,0.405,0.061,0.611,0.088l-0.008-0.004c10.46,1.503,21.152,2.289,32.029,2.289  C278.028,432.45,294.129,430.65,309.632,427.248z"/><path style="fill:#ECB759" d="M460.82,190.187c-0.855-1.069-2.167-1.635-3.795-1.635c-2.046,0-4.128,0.88-4.811,1.196  c-0.065,0.018-0.128,0.04-0.19,0.07c-19.596,9.494-40.605,14.306-62.448,14.306c-6.212,0-12.605-0.429-19.003-1.275  c-1.137-0.321-2.605-0.535-4.485-0.657c-7.623-1.258-15.243-3.171-22.595-5.668c-8.292-3.311-17.38-8.002-27.01-13.943  c-8.13-5.014-14.698-9.739-17.865-12.091c-0.936-0.739-1.891-1.462-2.877-2.182c-0.053-0.046-0.108-0.085-0.166-0.119  c-15.981-11.6-34.866-17.73-54.613-17.73c-51.368,0-93.162,41.791-93.162,93.161c0,38.319,23.977,73.202,59.715,86.954  c0.109,0.112,0.244,0.199,0.392,0.255c21.673,8.192,44.455,12.345,67.711,12.345c88.068,0,164.488-59.618,185.847-145.005  C462.32,194.415,462.109,191.803,460.82,190.187z" data-original="#F4D2B5" class="" data-old_color="#F4D2B5"/><g>
	<path style="fill:#F9ECE4;" d="M381.805,274.354c-2.276,0-4.541-0.941-6.164-2.785c-2.994-3.402-2.663-8.589,0.74-11.583   c1.038-0.915,2.065-1.844,3.078-2.786c3.317-3.087,8.51-2.903,11.599,0.415c3.088,3.317,2.902,8.51-0.415,11.599   c-1.124,1.047-2.263,2.078-3.417,3.093C385.666,273.68,383.731,274.354,381.805,274.354z" data-original="#F9ECE4" class=""/>
	<path style="fill:#F9ECE4;" d="M278.975,313.144c-19.898,0-39.394-3.554-57.944-10.565c-0.387-0.146-0.757-0.32-1.114-0.519   c-12.701-5.032-24.076-13.192-32.955-23.653c-2.935-3.456-2.51-8.636,0.944-11.567c3.456-2.934,8.637-2.51,11.568,0.945   c7.354,8.665,16.831,15.363,27.405,19.37c0.35,0.134,0.69,0.29,1.015,0.466c16.372,6.045,33.55,9.109,51.079,9.109   c28.643,0,56.412-8.217,80.306-23.763c3.8-2.473,8.883-1.394,11.355,2.404c2.472,3.799,1.395,8.882-2.404,11.355   C341.667,304.009,310.803,313.144,278.975,313.144z" data-original="#F9ECE4" class=""/>
</g><circle style="fill:#918D8F" cx="122.598" cy="52.313" r="13.281" data-original="#918D8F" class=""/></g> </svg>
