<?xml version="1.0"?>
<svg xmlns="http://www.w3.org/2000/svg" height="512px" viewBox="-2 0 512 512.00002" width="512px" class=""><g><path d="m324.949219 454.414062c0 31.796876-31.339844 57.585938-70.007813 57.585938-38.667968 0-70-25.789062-70-57.585938 0-5.300781.871094-10.4375 2.488282-15.289062 7.351562-21.992188 12.769531-44.859375 15.648437-68.230469 1.519531-12.367187 2.324219-24.886719 2.324219-37.484375v-2.769531l99.089844-.46875v3.238281c0 12.457032.792968 24.824219 2.269531 37.0625 2.867187 23.519532 8.308593 46.53125 15.703125 68.652344 1.617187 4.851562 2.484375 9.988281 2.484375 15.289062zm0 0" fill="#e6e6e6" data-original="#E6E6E6" class="" style="fill:#F5F6C8" data-old_color="#e6e6e6"/><path d="m306.761719 370.472656c-15.203125 2.191406-32.945313 3.757813-53.210938 3.984375-19.242187.21875-36.050781-1.238281-50.472656-3.5625 1.519531-12.367187 2.324219-24.886719 2.324219-37.484375v-2.769531l99.089844-.46875v3.238281c0 12.457032.792968 24.824219 2.269531 37.0625zm0 0" fill="#c4becc" data-original="#C4BECC" class="active-path" data-old_color="#c4becc" style="fill:#EEEDC8"/><path d="m254.941406 512c-38.667968 0-70-25.789062-70-57.585938 0-5.300781.871094-10.4375 2.488282-15.289062 11.238281-33.632812 17.972656-69.316406 17.972656-105.714844v-2.769531l49.550781-.226563-19.796875.226563v2.769531c0 36.398438-2.683594 72.082032-7.179688 105.714844-.640624 4.851562-.988281 9.988281-.988281 15.289062 0 31.796876 12.511719 57.585938 27.953125 57.585938zm0 0" fill="#c4becc" data-original="#C4BECC" class="active-path" data-old_color="#c4becc" style="fill:#EEEDC8"/><path d="m374.121094 311.410156s-17.515625 9.273438-52.125 15.898438c-18.132813 3.460937-40.980469 6.210937-68.445313 6.523437-24.195312.273438-44.523437-2.082031-61.113281-5.503906-3.628906-.75-7.082031-1.542969-10.363281-2.378906-31.230469-7.949219-46.300781-19.023438-46.300781-19.023438l16.832031-24.726562 13.757812-20.210938 62.90625.042969 113.292969.089844 13.011719 20.328125zm0 0" fill="#e6e6e6" data-original="#E6E6E6" class="" style="fill:#F5F6C8" data-old_color="#e6e6e6"/><path d="m342.5625 262.121094-113.292969-.085938v-.003906l-62.90625-.042969-13.761719 20.210938-16.832031 24.726562s15.074219 11.074219 46.304688 19.023438c3.28125.835937 6.734375 1.628906 10.359375 2.378906l9.683594-17.429687c8.132812-14.632813 23.628906-23.632813 40.371093-23.417969 4.222657.054687 8.457031.082031 12.710938.082031 26.238281 0 51.929687-1.019531 76.894531-2.976562 7.894531-.617188 15.726562-1.335938 23.480469-2.136719zm0 0" fill="#c4becc" data-original="#C4BECC" class="active-path" data-old_color="#c4becc" style="fill:#EEEDC8"/><path d="m274.738281 330.171875v.144531l-19.785156.097656zm0 0" fill="#c4becc" data-original="#C4BECC" class="active-path" data-old_color="#c4becc" style="fill:#EEEDC8"/><path d="m332.09375 263.015625c51.230469-4.023437 99.429688-11.984375 142.984375-23.160156 18.671875-4.792969 31.921875-21.445313 32.070313-40.726563.003906-.402344.007812-.804687.007812-1.207031 0-109.3125-113.519531-197.921875-253.566406-197.921875-140.050782 0-253.58593775 88.609375-253.58593775 197.921875v.335937c.04296875 19.085938 13.09374975 35.757813 31.55468775 40.605469 45.101562 11.84375 95.316406 20.226563 148.789062 24.296875 24.339844 1.863282 49.339844 2.832032 74.847656 2.832032 26.242188 0 51.933594-1.023438 76.898438-2.976563zm0 0" fill="#ff694f" data-original="#FF694F" class="" data-old_color="#ff694f" style="fill:#E04024"/><path d="m122.175781 197.917969v.339843c.011719 12.042969 8.308594 40.339844 16.820313 60.832032-38.09375-4.636719-74.15625-11.488282-107.4375-20.230469-18.460938-4.84375-31.5156252-21.511719-31.558594-40.601563v-.339843c0-108.863281 112.632812-197.203125 251.890625-197.9062502-71.789063 1.3789062-129.714844 89.4570312-129.714844 197.9062502zm0 0" fill="#ed2867" data-original="#ED2867" class=""/><g fill="#e6e6e6"><path d="m165.050781 70.300781c0 24.847657-13.914062 46.445313-34.359375 57.4375-9.167968 4.917969-19.65625 7.71875-30.796875 7.71875-28.09375 0-52.027343-17.777343-61.179687-42.6875 24.953125-30.992187 60.601562-56.207031 102.921875-72.484375 10.402343 8.6875 18.058593 20.554688 21.457031 34.121094 1.28125 5.089844 1.957031 10.414062 1.957031 15.894531zm0 0" data-original="#E6E6E6" class="" style="fill:#F5F6C8" data-old_color="#E6E6E6"/><path d="m253.589844 0c21.183594 0 41.761718 2.03125 61.429687 5.851562-8.960937 25.28125-33.089843 43.394532-61.429687 43.394532-28.355469 0-52.484375-18.113282-61.433594-43.394532 19.667969-3.820312 40.246094-5.851562 61.433594-5.851562zm0 0" data-original="#E6E6E6" class="" style="fill:#F5F6C8" data-old_color="#E6E6E6"/><path d="m468.449219 92.757812c-9.144531 24.921876-33.089844 42.699219-61.183594 42.699219-35.976563 0-65.152344-29.167969-65.152344-65.15625 0-20.097656 9.097657-38.070312 23.410157-50.027343 42.320312 16.277343 77.96875 41.492187 102.925781 72.484374zm0 0" data-original="#E6E6E6" class="" style="fill:#F5F6C8" data-old_color="#E6E6E6"/></g><path d="m163.09375 54.40625c-14.171875 20.285156-25.34375 45.28125-32.402344 73.332031-9.167968 4.917969-19.65625 7.71875-30.796875 7.71875-28.09375 0-52.027343-17.777343-61.179687-42.6875 24.953125-30.992187 60.601562-56.207031 102.921875-72.484375 10.402343 8.6875 18.058593 20.554688 21.457031 34.121094zm0 0" fill="#c4becc" data-original="#C4BECC" class="active-path" data-old_color="#c4becc" style="fill:#EEEDC8"/><path d="m299.652344 152.027344c0 25.445312-20.628906 46.074218-46.074219 46.074218-25.441406 0-46.070313-20.628906-46.070313-46.074218 0-25.441406 20.628907-46.070313 46.070313-46.070313 25.445313 0 46.074219 20.628907 46.074219 46.070313zm0 0" fill="#e6e6e6" data-original="#E6E6E6" class="" style="fill:#F5F6C8" data-old_color="#e6e6e6"/><path d="m160.933594 195.53125c0 14.820312-12.023438 26.84375-26.84375 26.84375-2.738282 0-5.375-.414062-7.863282-1.171875-11-3.355469-18.992187-13.585937-18.992187-25.671875 0-11.035156 6.65625-20.511719 16.167969-24.628906 3.28125-1.433594 6.886718-2.214844 10.6875-2.214844 14.820312 0 26.84375 12.007812 26.84375 26.84375zm0 0" fill="#e6e6e6" data-original="#E6E6E6" class="" style="fill:#F5F6C8" data-old_color="#e6e6e6"/><path d="m399.917969 195.53125c0 14.824219-12.019531 26.84375-26.847657 26.84375-14.824218 0-26.84375-12.019531-26.84375-26.84375 0-14.828125 12.019532-26.847656 26.84375-26.847656 14.828126 0 26.847657 12.019531 26.847657 26.847656zm0 0" fill="#e6e6e6" data-original="#E6E6E6" class="" style="fill:#F5F6C8" data-old_color="#e6e6e6"/><path d="m122.175781 198.257812c.011719 5.242188 1.574219 13.539063 4.050781 22.945313-11-3.355469-18.992187-13.585937-18.992187-25.671875 0-11.035156 6.65625-20.511719 16.167969-24.628906-.8125 8.828125-1.226563 17.851562-1.226563 27.015625zm0 0" fill="#c4becc" data-original="#C4BECC" class="active-path" data-old_color="#c4becc" style="fill:#EEEDC8"/></g> </svg>
