<?xml version="1.0"?>
<svg xmlns="http://www.w3.org/2000/svg" id="icons" enable-background="new 0 0 64 64" height="512px" viewBox="0 0 64 64" width="512px" class=""><g transform="matrix(0.931972 -2.28267e-16 2.28267e-16 0.931972 2.17689 2.17689)"><path d="m40.999 52c-.553 0-1-.447-1-1v-3.996c0-.553.447-1 1-1s1 .447 1 1v3.996c0 .553-.447 1-1 1z" fill="#844747" data-original="#844747" class="" style="fill:#9A5151" data-old_color="#844747"/><path d="m24 49c-.553 0-1-.447-1-1v-.996c0-.553.447-1 1-1s1 .447 1 1v.996c0 .553-.447 1-1 1z" fill="#844747" data-original="#844747" class="" style="fill:#9A5151" data-old_color="#844747"/><path d="m35 47v13c0 1.66-1.34 3-3 3s-3-1.34-3-3v-13z" fill="#ffd2a6" data-original="#FFD2A6" class=""/><path d="m46 43v.01c-.01 2.21-1.789 3.99-4 3.99h-7-6-5-2c-2.209 0-3.99-1.78-4-3.99v-.01-28c0-7.729 6.271-14 14-14 7.73 0 14 6.271 14 14z" fill="#965353" data-original="#965353" class="active-path" style="fill:#965353"/><g fill="#844747"><path d="m28.003 37.997c-.553 0-1-.447-1-1v-19.997c0-.552.447-1 1-1s1 .448 1 1v19.997c0 .553-.447 1-1 1z" data-original="#844747" class="" style="fill:#9A5151" data-old_color="#844747"/><path d="m36.001 37.997c-.553 0-1-.447-1-1v-19.997c0-.552.447-1 1-1s1 .448 1 1v19.997c0 .553-.447 1-1 1z" data-original="#844747" class="" style="fill:#9A5151" data-old_color="#844747"/></g></g> </svg>
